<svg xmlns="http://www.w3.org/2000/svg" viewBox="0 0 1440 320">
  <path fill="#0099ff" fill-opacity="0.2" d="M0,32L48,37.3C96,43,192,53,288,90.7C384,128,480,192,576,197.3C672,203,768,149,864,128C960,107,1056,117,1152,138.7C1248,160,1344,192,1392,208L1440,224L1440,320L1392,320C1344,320,1248,320,1152,320C1056,320,960,320,864,320C768,320,672,320,576,320C480,320,384,320,288,320C192,320,96,320,48,320L0,320Z"></path>
  <path fill="#0099ff" fill-opacity="0.4" d="M0,64L48,85.3C96,107,192,149,288,154.7C384,160,480,128,576,112C672,96,768,96,864,112C960,128,1056,160,1152,165.3C1248,171,1344,149,1392,138.7L1440,128L1440,320L1392,320C1344,320,1248,320,1152,320C1056,320,960,320,864,320C768,320,672,320,576,320C480,320,384,320,288,320C192,320,96,320,48,320L0,320Z"></path>
  <path fill="#0099ff" fill-opacity="0.6" d="M0,224L48,213.3C96,203,192,181,288,181.3C384,181,480,203,576,208C672,213,768,203,864,181.3C960,160,1056,128,1152,122.7C1248,117,1344,139,1392,149.3L1440,160L1440,320L1392,320C1344,320,1248,320,1152,320C1056,320,960,320,864,320C768,320,672,320,576,320C480,320,384,320,288,320C192,320,96,320,48,320L0,320Z"></path>
</svg> 