<svg t="1710400000000" viewBox="0 0 1024 1024" version="1.1" xmlns="http://www.w3.org/2000/svg">
  <path d="M512 512m-512 0a512 512 0 1 0 1024 0 512 512 0 1 0-1024 0Z" fill="#3370FF"/>
  <path d="M720.1 456.6c-7.6-7.6-19.9-7.6-27.5 0L512 637.2 331.4 456.6c-7.6-7.6-19.9-7.6-27.5 0s-7.6 19.9 0 27.5l194.3 194.3c7.6 7.6 19.9 7.6 27.5 0l194.3-194.3c7.7-7.6 7.7-19.9 0.1-27.5z" fill="#FFFFFF"/>
  <path d="M512 345.6c-10.8 0-19.5 8.7-19.5 19.5v292.8c0 10.8 8.7 19.5 19.5 19.5s19.5-8.7 19.5-19.5V365.1c0-10.8-8.7-19.5-19.5-19.5z" fill="#FFFFFF"/>
</svg> 