<svg t="1710400000000" viewBox="0 0 1024 1024" version="1.1" xmlns="http://www.w3.org/2000/svg">
  <path d="M690.1 377.4c5.9 0 11.8 0.2 17.6 0.5-24.4-128.7-158.3-227.1-319.9-227.1C209 150.8 64 271.4 64 420.2c0 81.1 43.6 154.2 111.9 203.6 5.5 3.9 9.1 10.3 9.1 17.6 0 2.4-0.5 4.6-1.1 6.9-5.5 20.3-14.2 52.8-14.6 54.3-0.7 2.6-1.7 5.2-1.7 7.9 0 5.9 4.8 10.8 10.8 10.8 2.3 0 4.2-0.9 6.2-2l70.9-40.9c5.3-3.1 11-5 17.2-5 3.2 0 6.4 0.5 9.5 1.4 33.1 9.5 68.8 14.8 105.7 14.8 6 0 11.9-0.1 17.8-0.4-7.1-21-10.9-43.1-10.9-66 0-135.8 132.2-245.8 295.3-245.8z" fill="#50B674"/>
  <path d="M866.7 577.2c0-125.4-123.7-227.1-276.3-227.1S314 451.9 314 577.2C314 702.7 437.7 804.4 590.3 804.4c33.3 0 65.4-4.4 95.2-12.4 2.8-0.8 5.6-1.2 8.4-1.2 5.5 0 10.6 1.7 15.2 4.4l62.7 36.1c1.8 1 3.4 1.7 5.5 1.7 5.3 0 9.5-4.3 9.5-9.5 0-2.4-0.9-4.6-1.5-6.9-0.3-1.3-7.8-28.8-12.9-48.1-0.5-2-1-4-1-6.1 0-6.4 3.2-12.1 8.1-15.5 60.4-43.7 98.2-107 98.2-175.7z" fill="#50B674"/>
</svg> 